<svg width="1440" height="623" viewBox="0 0 1440 623" fill="none" xmlns="http://www.w3.org/2000/svg">
<path d="M14.7216 1H-86V104.667M14.7216 1V104.667M14.7216 1H115.443M14.7216 104.667H-86M14.7216 104.667V208.333M14.7216 104.667H115.443M-86 104.667V208.333M14.7216 208.333H-86M14.7216 208.333V312M14.7216 208.333H115.443M-86 208.333V312M14.7216 312H-86M14.7216 312V415.667M14.7216 312H115.443M-86 312V415.667M14.7216 415.667H-86M14.7216 415.667V519.333M14.7216 415.667H115.443M-86 415.667V519.333M14.7216 519.333H-86M14.7216 519.333V623M14.7216 519.333H115.443M-86 519.333V623H14.7216M14.7216 623H115.443M115.443 1V104.667M115.443 1H216.165M115.443 104.667V208.333M115.443 104.667H216.165M115.443 208.333V312M115.443 208.333H216.165M115.443 312V415.667M115.443 312H216.165M115.443 415.667V519.333M115.443 415.667H216.165M115.443 519.333V623M115.443 519.333H216.165M115.443 623H216.165M216.165 1V104.667M216.165 1H316.886M216.165 104.667V208.333M216.165 104.667H316.886M216.165 208.333V312M216.165 208.333H316.886M216.165 312V415.667M216.165 312H316.886M216.165 415.667V519.333M216.165 415.667H316.886M216.165 519.333V623M216.165 519.333H316.886M216.165 623H316.886M316.886 1V104.667M316.886 1H417.608M316.886 104.667V208.333M316.886 104.667H417.608M316.886 208.333V312M316.886 208.333H417.608M316.886 312V415.667M316.886 312H417.608M316.886 415.667V519.333M316.886 415.667H417.608M316.886 519.333V623M316.886 519.333H417.608M316.886 623H417.608M417.608 1V104.667M417.608 1H518.33M417.608 104.667V208.333M417.608 104.667H518.33M417.608 208.333V312M417.608 208.333H518.33M417.608 312V415.667M417.608 312H518.33M417.608 415.667V519.333M417.608 415.667H518.33M417.608 519.333V623M417.608 519.333H518.33M417.608 623H518.33M518.33 1V104.667M518.33 1H619.051M518.33 104.667V208.333M518.33 104.667H619.051M518.33 208.333V312M518.33 208.333H619.051M518.33 312V415.667M518.33 312H619.051M518.33 415.667V519.333M518.33 415.667H619.051M518.33 519.333V623M518.33 519.333H619.051M518.33 623H619.051M619.051 1V104.667M619.051 1H719.773M619.051 104.667V208.333M619.051 104.667H719.773M619.051 208.333V312M619.051 208.333H719.773M619.051 312V415.667M619.051 312H719.773M619.051 415.667V519.333M619.051 415.667H719.773M619.051 519.333V623M619.051 519.333H719.773M619.051 623H719.773M719.773 1V104.667M719.773 1H820.494M719.773 104.667V208.333M719.773 104.667H820.494M719.773 208.333V312M719.773 208.333H820.494M719.773 312V415.667M719.773 312H820.494M719.773 415.667V519.333M719.773 415.667H820.494M719.773 519.333V623M719.773 519.333H820.494M719.773 623H820.494M820.494 1V104.667M820.494 1H921.216M820.494 104.667V208.333M820.494 104.667H921.216M820.494 208.333V312M820.494 208.333H921.216M820.494 312V415.667M820.494 312H921.216M820.494 415.667V519.333M820.494 415.667H921.216M820.494 519.333V623M820.494 519.333H921.216M820.494 623H921.216M921.216 1V104.667M921.216 1H1021.94M921.216 104.667V208.333M921.216 104.667H1021.94M921.216 208.333V312M921.216 208.333H1021.94M921.216 312V415.667M921.216 312H1021.94M921.216 415.667V519.333M921.216 415.667H1021.94M921.216 519.333V623M921.216 519.333H1021.94M921.216 623H1021.94M1021.94 1V104.667M1021.94 1H1122.66M1021.94 104.667V208.333M1021.94 104.667H1122.66M1021.94 208.333V312M1021.94 208.333H1122.66M1021.94 312V415.667M1021.94 312H1122.66M1021.94 415.667V519.333M1021.94 415.667H1122.66M1021.94 519.333V623M1021.94 519.333H1122.66M1021.94 623H1122.66M1122.66 1V104.667M1122.66 1H1223.38M1122.66 104.667V208.333M1122.66 104.667H1223.38M1122.66 208.333V312M1122.66 208.333H1223.38M1122.66 312V415.667M1122.66 312H1223.38M1122.66 415.667V519.333M1122.66 415.667H1223.38M1122.66 519.333V623M1122.66 519.333H1223.38M1122.66 623H1223.38M1223.38 1V104.667M1223.38 1H1324.1M1223.38 104.667V208.333M1223.38 104.667H1324.1M1223.38 208.333V312M1223.38 208.333H1324.1M1223.38 312V415.667M1223.38 312H1324.1M1223.38 415.667V519.333M1223.38 415.667H1324.1M1223.38 519.333V623M1223.38 519.333H1324.1M1223.38 623H1324.1M1324.1 1V104.667M1324.1 1H1424.82M1324.1 104.667V208.333M1324.1 104.667H1424.82M1324.1 208.333V312M1324.1 208.333H1424.82M1324.1 312V415.667M1324.1 312H1424.82M1324.1 415.667V519.333M1324.1 415.667H1424.82M1324.1 519.333V623M1324.1 519.333H1424.82M1324.1 623H1424.82M1424.82 1V104.667M1424.82 1H1525.55V104.667M1424.82 104.667V208.333M1424.82 104.667H1525.55M1424.82 208.333V312M1424.82 208.333H1525.55M1424.82 312V415.667M1424.82 312H1525.55M1424.82 415.667V519.333M1424.82 415.667H1525.55M1424.82 519.333V623M1424.82 519.333H1525.55M1424.82 623H1525.55V519.333M1525.55 104.667V208.333M1525.55 208.333V312M1525.55 312V415.667M1525.55 415.667V519.333" stroke="url(#paint0_radial_135_3495)" stroke-opacity="0.24" stroke-width="1.41364"/>
<defs>
<radialGradient id="paint0_radial_135_3495" cx="0" cy="0" r="1" gradientUnits="userSpaceOnUse" gradientTransform="translate(719.773 312) rotate(90) scale(311 805.773)">
<stop stop-color="#717784"/>
<stop offset="1" stop-color="#717784" stop-opacity="0"/>
</radialGradient>
</defs>
</svg>