<svg width="442" height="136" viewBox="0 0 442 136" fill="none" xmlns="http://www.w3.org/2000/svg">
<g clip-path="url(#clip0_625_1222)">
<rect width="442" height="136" rx="12" fill="url(#paint0_linear_625_1222)"/>
<g opacity="0.2">
<mask id="mask0_625_1222" style="mask-type:alpha" maskUnits="userSpaceOnUse" x="0" y="-30" width="814" height="472">
<rect width="442" height="137" transform="matrix(-1 0 0 1 442 0)" fill="url(#paint1_radial_625_1222)"/>
<rect width="442" height="442" transform="matrix(-1 0 0 1 814 -30)" fill="url(#paint2_radial_625_1222)"/>
</mask>
<g mask="url(#mask0_625_1222)">
<g clip-path="url(#clip1_625_1222)">
<mask id="path-4-inside-1_625_1222" fill="white">
<path d="M442 0H397.8V44.2H442V0Z"/>
</mask>
<path d="M397.8 44.2V44.6604H397.34V44.2H397.8ZM397.8 0H398.26V44.2H397.8H397.34V0H397.8ZM397.8 44.2V43.7396H442V44.2V44.6604H397.8V44.2Z" fill="#D0D5DD" mask="url(#path-4-inside-1_625_1222)"/>
<mask id="path-6-inside-2_625_1222" fill="white">
<path d="M397.801 0H353.601V44.2H397.801V0Z"/>
</mask>
<path d="M353.601 44.2V44.6604H353.14V44.2H353.601ZM353.601 0H354.061V44.2H353.601H353.14V0H353.601ZM353.601 44.2V43.7396H397.801V44.2V44.6604H353.601V44.2Z" fill="#D0D5DD" mask="url(#path-6-inside-2_625_1222)"/>
<mask id="path-8-inside-3_625_1222" fill="white">
<path d="M353.6 0H309.4V44.2H353.6V0Z"/>
</mask>
<path d="M309.4 44.2V44.6604H308.939V44.2H309.4ZM309.4 0H309.86V44.2H309.4H308.939V0H309.4ZM309.4 44.2V43.7396H353.6V44.2V44.6604H309.4V44.2Z" fill="#D0D5DD" mask="url(#path-8-inside-3_625_1222)"/>
<mask id="path-10-inside-4_625_1222" fill="white">
<path d="M309.4 0H265.2V44.2H309.4V0Z"/>
</mask>
<path d="M265.2 44.2V44.6604H264.74V44.2H265.2ZM265.2 0H265.661V44.2H265.2H264.74V0H265.2ZM265.2 44.2V43.7396H309.4V44.2V44.6604H265.2V44.2Z" fill="#D0D5DD" mask="url(#path-10-inside-4_625_1222)"/>
<mask id="path-12-inside-5_625_1222" fill="white">
<path d="M265.199 0H220.999V44.2H265.199V0Z"/>
</mask>
<path d="M220.999 44.2V44.6604H220.539V44.2H220.999ZM220.999 0H221.46V44.2H220.999H220.539V0H220.999ZM220.999 44.2V43.7396H265.199V44.2V44.6604H220.999V44.2Z" fill="#D0D5DD" mask="url(#path-12-inside-5_625_1222)"/>
<mask id="path-14-inside-6_625_1222" fill="white">
<path d="M221 0H176.8V44.2H221V0Z"/>
</mask>
<path d="M176.8 44.2V44.6604H176.34V44.2H176.8ZM176.8 0H177.26V44.2H176.8H176.34V0H176.8ZM176.8 44.2V43.7396H221V44.2V44.6604H176.8V44.2Z" fill="#D0D5DD" mask="url(#path-14-inside-6_625_1222)"/>
<mask id="path-16-inside-7_625_1222" fill="white">
<path d="M176.801 0H132.601V44.2H176.801V0Z"/>
</mask>
<path d="M132.601 44.2V44.6604H132.14V44.2H132.601ZM132.601 0H133.061V44.2H132.601H132.14V0H132.601ZM132.601 44.2V43.7396H176.801V44.2V44.6604H132.601V44.2Z" fill="#D0D5DD" mask="url(#path-16-inside-7_625_1222)"/>
<mask id="path-18-inside-8_625_1222" fill="white">
<path d="M132.6 0H88.3996V44.2H132.6V0Z"/>
</mask>
<path d="M88.3996 44.2V44.6604H87.9392V44.2H88.3996ZM88.3996 0H88.86V44.2H88.3996H87.9392V0H88.3996ZM88.3996 44.2V43.7396H132.6V44.2V44.6604H88.3996V44.2Z" fill="#D0D5DD" mask="url(#path-18-inside-8_625_1222)"/>
<mask id="path-20-inside-9_625_1222" fill="white">
<path d="M88.4004 0H44.2004V44.2H88.4004V0Z"/>
</mask>
<path d="M44.2004 44.2V44.6604H43.74V44.2H44.2004ZM44.2004 0H44.6608V44.2H44.2004H43.74V0H44.2004ZM44.2004 44.2V43.7396H88.4004V44.2V44.6604H44.2004V44.2Z" fill="#D0D5DD" mask="url(#path-20-inside-9_625_1222)"/>
<mask id="path-22-inside-10_625_1222" fill="white">
<path d="M44.1992 0H-0.000782013V44.2H44.1992V0Z"/>
</mask>
<path d="M-0.000782013 44.2V44.6604H-0.461197V44.2H-0.000782013ZM-0.000782013 0H0.459633V44.2H-0.000782013H-0.461197V0H-0.000782013ZM-0.000782013 44.2V43.7396H44.1992V44.2V44.6604H-0.000782013V44.2Z" fill="#D0D5DD" mask="url(#path-22-inside-10_625_1222)"/>
<mask id="path-24-inside-11_625_1222" fill="white">
<path d="M442 44.2H397.8V88.4H442V44.2Z"/>
</mask>
<path d="M397.8 88.4V88.8604H397.34V88.4H397.8ZM397.8 44.2H398.26V88.4H397.8H397.34V44.2H397.8ZM397.8 88.4V87.9395H442V88.4V88.8604H397.8V88.4Z" fill="#D0D5DD" mask="url(#path-24-inside-11_625_1222)"/>
<mask id="path-26-inside-12_625_1222" fill="white">
<path d="M397.801 44.2H353.601V88.4H397.801V44.2Z"/>
</mask>
<path d="M353.601 88.4V88.8604H353.14V88.4H353.601ZM353.601 44.2H354.061V88.4H353.601H353.14V44.2H353.601ZM353.601 88.4V87.9395H397.801V88.4V88.8604H353.601V88.4Z" fill="#D0D5DD" mask="url(#path-26-inside-12_625_1222)"/>
<mask id="path-28-inside-13_625_1222" fill="white">
<path d="M353.6 44.2H309.4V88.4H353.6V44.2Z"/>
</mask>
<path d="M353.6 44.2H309.4V88.4H353.6V44.2Z" fill="#F2F4F7"/>
<path d="M309.4 88.4V88.8604H308.939V88.4H309.4ZM309.4 44.2H309.86V88.4H309.4H308.939V44.2H309.4ZM309.4 88.4V87.9395H353.6V88.4V88.8604H309.4V88.4Z" fill="#D0D5DD" mask="url(#path-28-inside-13_625_1222)"/>
<mask id="path-30-inside-14_625_1222" fill="white">
<path d="M309.4 44.2H265.2V88.4H309.4V44.2Z"/>
</mask>
<path d="M265.2 88.4V88.8604H264.74V88.4H265.2ZM265.2 44.2H265.661V88.4H265.2H264.74V44.2H265.2ZM265.2 88.4V87.9395H309.4V88.4V88.8604H265.2V88.4Z" fill="#D0D5DD" mask="url(#path-30-inside-14_625_1222)"/>
<mask id="path-32-inside-15_625_1222" fill="white">
<path d="M265.199 44.2H220.999V88.4H265.199V44.2Z"/>
</mask>
<path d="M220.999 88.4V88.8604H220.539V88.4H220.999ZM220.999 44.2H221.46V88.4H220.999H220.539V44.2H220.999ZM220.999 88.4V87.9395H265.199V88.4V88.8604H220.999V88.4Z" fill="#D0D5DD" mask="url(#path-32-inside-15_625_1222)"/>
<mask id="path-34-inside-16_625_1222" fill="white">
<path d="M221 44.2H176.8V88.4H221V44.2Z"/>
</mask>
<path d="M176.8 88.4V88.8604H176.34V88.4H176.8ZM176.8 44.2H177.26V88.4H176.8H176.34V44.2H176.8ZM176.8 88.4V87.9395H221V88.4V88.8604H176.8V88.4Z" fill="#D0D5DD" mask="url(#path-34-inside-16_625_1222)"/>
<mask id="path-36-inside-17_625_1222" fill="white">
<path d="M176.801 44.2H132.601V88.4H176.801V44.2Z"/>
</mask>
<path d="M132.601 88.4V88.8604H132.14V88.4H132.601ZM132.601 44.2H133.061V88.4H132.601H132.14V44.2H132.601ZM132.601 88.4V87.9395H176.801V88.4V88.8604H132.601V88.4Z" fill="#D0D5DD" mask="url(#path-36-inside-17_625_1222)"/>
<mask id="path-38-inside-18_625_1222" fill="white">
<path d="M132.6 44.2H88.3996V88.4H132.6V44.2Z"/>
</mask>
<path d="M88.3996 88.4V88.8604H87.9392V88.4H88.3996ZM88.3996 44.2H88.86V88.4H88.3996H87.9392V44.2H88.3996ZM88.3996 88.4V87.9395H132.6V88.4V88.8604H88.3996V88.4Z" fill="#D0D5DD" mask="url(#path-38-inside-18_625_1222)"/>
<mask id="path-40-inside-19_625_1222" fill="white">
<path d="M88.4004 44.2H44.2004V88.4H88.4004V44.2Z"/>
</mask>
<path d="M88.4004 44.2H44.2004V88.4H88.4004V44.2Z" fill="#F2F4F7"/>
<path d="M44.2004 88.4V88.8604H43.74V88.4H44.2004ZM44.2004 44.2H44.6608V88.4H44.2004H43.74V44.2H44.2004ZM44.2004 88.4V87.9395H88.4004V88.4V88.8604H44.2004V88.4Z" fill="#D0D5DD" mask="url(#path-40-inside-19_625_1222)"/>
<mask id="path-42-inside-20_625_1222" fill="white">
<path d="M44.1992 44.2H-0.000782013V88.4H44.1992V44.2Z"/>
</mask>
<path d="M-0.000782013 88.4V88.8604H-0.461197V88.4H-0.000782013ZM-0.000782013 44.2H0.459633V88.4H-0.000782013H-0.461197V44.2H-0.000782013ZM-0.000782013 88.4V87.9395H44.1992V88.4V88.8604H-0.000782013V88.4Z" fill="#D0D5DD" mask="url(#path-42-inside-20_625_1222)"/>
<mask id="path-44-inside-21_625_1222" fill="white">
<path d="M442 88.4H397.8V132.6H442V88.4Z"/>
</mask>
<path d="M442 88.4H397.8V132.6H442V88.4Z" fill="#F2F4F7"/>
<path d="M397.8 132.6V133.06H397.34V132.6H397.8ZM397.8 88.4H398.26V132.6H397.8H397.34V88.4H397.8ZM397.8 132.6V132.14H442V132.6V133.06H397.8V132.6Z" fill="#D0D5DD" mask="url(#path-44-inside-21_625_1222)"/>
<mask id="path-46-inside-22_625_1222" fill="white">
<path d="M397.801 88.4H353.601V132.6H397.801V88.4Z"/>
</mask>
<path d="M353.601 132.6V133.06H353.14V132.6H353.601ZM353.601 88.4H354.061V132.6H353.601H353.14V88.4H353.601ZM353.601 132.6V132.14H397.801V132.6V133.06H353.601V132.6Z" fill="#D0D5DD" mask="url(#path-46-inside-22_625_1222)"/>
<mask id="path-48-inside-23_625_1222" fill="white">
<path d="M353.6 88.4H309.4V132.6H353.6V88.4Z"/>
</mask>
<path d="M309.4 132.6V133.06H308.939V132.6H309.4ZM309.4 88.4H309.86V132.6H309.4H308.939V88.4H309.4ZM309.4 132.6V132.14H353.6V132.6V133.06H309.4V132.6Z" fill="#D0D5DD" mask="url(#path-48-inside-23_625_1222)"/>
<mask id="path-50-inside-24_625_1222" fill="white">
<path d="M309.4 88.4H265.2V132.6H309.4V88.4Z"/>
</mask>
<path d="M265.2 132.6V133.06H264.74V132.6H265.2ZM265.2 88.4H265.661V132.6H265.2H264.74V88.4H265.2ZM265.2 132.6V132.14H309.4V132.6V133.06H265.2V132.6Z" fill="#D0D5DD" mask="url(#path-50-inside-24_625_1222)"/>
<mask id="path-52-inside-25_625_1222" fill="white">
<path d="M265.199 88.4H220.999V132.6H265.199V88.4Z"/>
</mask>
<path d="M220.999 132.6V133.06H220.539V132.6H220.999ZM220.999 88.4H221.46V132.6H220.999H220.539V88.4H220.999ZM220.999 132.6V132.14H265.199V132.6V133.06H220.999V132.6Z" fill="#D0D5DD" mask="url(#path-52-inside-25_625_1222)"/>
<mask id="path-54-inside-26_625_1222" fill="white">
<path d="M221 88.4H176.8V132.6H221V88.4Z"/>
</mask>
<path d="M176.8 132.6V133.06H176.34V132.6H176.8ZM176.8 88.4H177.26V132.6H176.8H176.34V88.4H176.8ZM176.8 132.6V132.14H221V132.6V133.06H176.8V132.6Z" fill="#D0D5DD" mask="url(#path-54-inside-26_625_1222)"/>
<mask id="path-56-inside-27_625_1222" fill="white">
<path d="M176.801 88.4H132.601V132.6H176.801V88.4Z"/>
</mask>
<path d="M176.801 88.4H132.601V132.6H176.801V88.4Z" fill="#F2F4F7"/>
<path d="M132.601 132.6V133.06H132.14V132.6H132.601ZM132.601 88.4H133.061V132.6H132.601H132.14V88.4H132.601ZM132.601 132.6V132.14H176.801V132.6V133.06H132.601V132.6Z" fill="#D0D5DD" mask="url(#path-56-inside-27_625_1222)"/>
<mask id="path-58-inside-28_625_1222" fill="white">
<path d="M132.6 88.4H88.3996V132.6H132.6V88.4Z"/>
</mask>
<path d="M88.3996 132.6V133.06H87.9392V132.6H88.3996ZM88.3996 88.4H88.86V132.6H88.3996H87.9392V88.4H88.3996ZM88.3996 132.6V132.14H132.6V132.6V133.06H88.3996V132.6Z" fill="#D0D5DD" mask="url(#path-58-inside-28_625_1222)"/>
<mask id="path-60-inside-29_625_1222" fill="white">
<path d="M88.4004 88.4H44.2004V132.6H88.4004V88.4Z"/>
</mask>
<path d="M44.2004 132.6V133.06H43.74V132.6H44.2004ZM44.2004 88.4H44.6608V132.6H44.2004H43.74V88.4H44.2004ZM44.2004 132.6V132.14H88.4004V132.6V133.06H44.2004V132.6Z" fill="#D0D5DD" mask="url(#path-60-inside-29_625_1222)"/>
<mask id="path-62-inside-30_625_1222" fill="white">
<path d="M44.1992 88.4H-0.000782013V132.6H44.1992V88.4Z"/>
</mask>
<path d="M-0.000782013 132.6V133.06H-0.461197V132.6H-0.000782013ZM-0.000782013 88.4H0.459633V132.6H-0.000782013H-0.461197V88.4H-0.000782013ZM-0.000782013 132.6V132.14H44.1992V132.6V133.06H-0.000782013V132.6Z" fill="#D0D5DD" mask="url(#path-62-inside-30_625_1222)"/>
<mask id="path-64-inside-31_625_1222" fill="white">
<path d="M442 132.6H397.8V176.8H442V132.6Z"/>
</mask>
<path d="M397.8 176.8V177.26H397.34V176.8H397.8ZM397.8 132.6H398.26V176.8H397.8H397.34V132.6H397.8ZM397.8 176.8V176.34H442V176.8V177.26H397.8V176.8Z" fill="#D0D5DD" mask="url(#path-64-inside-31_625_1222)"/>
<mask id="path-66-inside-32_625_1222" fill="white">
<path d="M397.801 132.6H353.601V176.8H397.801V132.6Z"/>
</mask>
<path d="M353.601 176.8V177.26H353.14V176.8H353.601ZM353.601 132.6H354.061V176.8H353.601H353.14V132.6H353.601ZM353.601 176.8V176.34H397.801V176.8V177.26H353.601V176.8Z" fill="#D0D5DD" mask="url(#path-66-inside-32_625_1222)"/>
<mask id="path-68-inside-33_625_1222" fill="white">
<path d="M353.6 132.6H309.4V176.8H353.6V132.6Z"/>
</mask>
<path d="M309.4 176.8V177.26H308.939V176.8H309.4ZM309.4 132.6H309.86V176.8H309.4H308.939V132.6H309.4ZM309.4 176.8V176.34H353.6V176.8V177.26H309.4V176.8Z" fill="#D0D5DD" mask="url(#path-68-inside-33_625_1222)"/>
<mask id="path-70-inside-34_625_1222" fill="white">
<path d="M309.4 132.6H265.2V176.8H309.4V132.6Z"/>
</mask>
<path d="M265.2 176.8V177.26H264.74V176.8H265.2ZM265.2 132.6H265.661V176.8H265.2H264.74V132.6H265.2ZM265.2 176.8V176.34H309.4V176.8V177.26H265.2V176.8Z" fill="#D0D5DD" mask="url(#path-70-inside-34_625_1222)"/>
<mask id="path-72-inside-35_625_1222" fill="white">
<path d="M265.199 132.6H220.999V176.8H265.199V132.6Z"/>
</mask>
<path d="M220.999 176.8V177.26H220.539V176.8H220.999ZM220.999 132.6H221.46V176.8H220.999H220.539V132.6H220.999ZM220.999 176.8V176.34H265.199V176.8V177.26H220.999V176.8Z" fill="#D0D5DD" mask="url(#path-72-inside-35_625_1222)"/>
<mask id="path-74-inside-36_625_1222" fill="white">
<path d="M221 132.6H176.8V176.8H221V132.6Z"/>
</mask>
<path d="M176.8 176.8V177.26H176.34V176.8H176.8ZM176.8 132.6H177.26V176.8H176.8H176.34V132.6H176.8ZM176.8 176.8V176.34H221V176.8V177.26H176.8V176.8Z" fill="#D0D5DD" mask="url(#path-74-inside-36_625_1222)"/>
<mask id="path-76-inside-37_625_1222" fill="white">
<path d="M176.801 132.6H132.601V176.8H176.801V132.6Z"/>
</mask>
<path d="M132.601 176.8V177.26H132.14V176.8H132.601ZM132.601 132.6H133.061V176.8H132.601H132.14V132.6H132.601ZM132.601 176.8V176.34H176.801V176.8V177.26H132.601V176.8Z" fill="#D0D5DD" mask="url(#path-76-inside-37_625_1222)"/>
<mask id="path-78-inside-38_625_1222" fill="white">
<path d="M132.6 132.6H88.3996V176.8H132.6V132.6Z"/>
</mask>
<path d="M88.3996 176.8V177.26H87.9392V176.8H88.3996ZM88.3996 132.6H88.86V176.8H88.3996H87.9392V132.6H88.3996ZM88.3996 176.8V176.34H132.6V176.8V177.26H88.3996V176.8Z" fill="#D0D5DD" mask="url(#path-78-inside-38_625_1222)"/>
<mask id="path-80-inside-39_625_1222" fill="white">
<path d="M88.4004 132.6H44.2004V176.8H88.4004V132.6Z"/>
</mask>
<path d="M44.2004 176.8V177.26H43.74V176.8H44.2004ZM44.2004 132.6H44.6608V176.8H44.2004H43.74V132.6H44.2004ZM44.2004 176.8V176.34H88.4004V176.8V177.26H44.2004V176.8Z" fill="#D0D5DD" mask="url(#path-80-inside-39_625_1222)"/>
<mask id="path-82-inside-40_625_1222" fill="white">
<path d="M44.1992 132.6H-0.000782013V176.8H44.1992V132.6Z"/>
</mask>
<path d="M44.1992 132.6H-0.000782013V176.8H44.1992V132.6Z" fill="#F2F4F7"/>
<path d="M-0.000782013 176.8V177.26H-0.461197V176.8H-0.000782013ZM-0.000782013 132.6H0.459633V176.8H-0.000782013H-0.461197V132.6H-0.000782013ZM-0.000782013 176.8V176.34H44.1992V176.8V177.26H-0.000782013V176.8Z" fill="#D0D5DD" mask="url(#path-82-inside-40_625_1222)"/>
</g>
<rect x="-0.230208" y="0.230208" width="441.54" height="441.54" transform="matrix(-1 0 0 1 441.54 0)" stroke="white" stroke-width="0.460417"/>
</g>
</g>
</g>
<defs>
<linearGradient id="paint0_linear_625_1222" x1="1.34762e-06" y1="68" x2="442" y2="68" gradientUnits="userSpaceOnUse">
<stop stop-color="#F88612"/>
<stop offset="1" stop-color="#FFBD00"/>
</linearGradient>
<radialGradient id="paint1_radial_625_1222" cx="0" cy="0" r="1" gradientUnits="userSpaceOnUse" gradientTransform="translate(221 -1.63317e-05) rotate(90) scale(137 230.696)">
<stop/>
<stop offset="0.953125" stop-opacity="0"/>
</radialGradient>
<radialGradient id="paint2_radial_625_1222" cx="0" cy="0" r="1" gradientUnits="userSpaceOnUse" gradientTransform="translate(221 -5.26905e-05) rotate(90) scale(442 230.696)">
<stop/>
<stop offset="0.953125" stop-opacity="0"/>
</radialGradient>
<clipPath id="clip0_625_1222">
<rect width="442" height="136" rx="12" fill="white"/>
</clipPath>
<clipPath id="clip1_625_1222">
<rect width="442" height="442" transform="matrix(-1 0 0 1 442 0)" fill="white"/>
</clipPath>
</defs>
</svg>
