<svg width="305" height="46" viewBox="0 0 305 46" fill="none" xmlns="http://www.w3.org/2000/svg">
<path fill-rule="evenodd" clip-rule="evenodd" d="M134.808 34.1016H128.575L123.902 15.7462C123.68 14.9018 123.209 14.1554 122.516 13.8036C120.787 12.9194 118.881 12.2158 116.803 11.861V11.1543H126.843C128.229 11.1543 129.268 12.2158 129.442 13.4487L131.867 26.6891L138.096 11.1543H144.156L134.808 34.1016ZM147.62 34.1016H141.734L146.581 11.1543H152.467L147.62 34.1016ZM160.083 17.5114C160.256 16.2754 161.295 15.5687 162.508 15.5687C164.413 15.3913 166.489 15.7462 168.221 16.6272L169.26 11.6866C167.528 10.9799 165.623 10.625 163.894 10.625C158.181 10.625 154.023 13.8036 154.023 18.215C154.023 21.571 156.968 23.3331 159.047 24.3947C161.295 25.4532 162.162 26.1598 161.988 27.2183C161.988 28.8061 160.256 29.5128 158.527 29.5128C156.448 29.5128 154.37 28.9835 152.467 28.0994L151.428 33.0431C153.507 33.9242 155.756 34.2791 157.834 34.2791C164.24 34.4534 168.221 31.278 168.221 26.5116C168.221 20.5094 160.083 20.1576 160.083 17.5114ZM188.822 34.1016L184.148 11.1543H179.128C178.089 11.1543 177.049 11.861 176.703 12.9194L168.048 34.1016H174.108L175.317 30.7487H182.762L183.455 34.1016H188.822ZM179.994 17.334L181.723 25.9825H176.876L179.994 17.334Z" fill="#838F8C"/>
</svg>
