<svg width="305" height="46" viewBox="0 0 305 46" fill="none" xmlns="http://www.w3.org/2000/svg">
<path d="M185.343 7.55176C186.789 7.55178 188.021 7.76549 188.878 8.4082C189.788 8.94384 190.325 10.0688 190.485 11.6221H187.432C187.432 11.1937 187.271 10.8184 187.057 10.4971C186.682 10.0687 186.145 9.85449 185.449 9.85449C184.378 9.85463 183.736 10.337 183.254 11.3008C182.986 11.7293 182.932 12.4797 182.932 13.2832C182.932 14.0864 183.093 14.7289 183.254 15.2109C183.522 16.1216 184.271 16.6045 185.235 16.6045C185.985 16.6045 186.468 16.3898 186.789 16.0684C187.11 15.6934 187.271 15.2113 187.324 14.6758H190.378C190.271 15.5864 189.949 16.3899 189.413 17.1934C188.449 18.3717 187.056 19.0146 185.235 19.0146C183.414 19.0146 182.021 18.4787 181.164 17.4609C180.254 16.4432 179.879 15.1573 179.879 13.4434C179.879 11.6223 180.361 10.1758 181.325 9.10449C182.289 8.03331 183.629 7.55176 185.343 7.55176ZM166.541 7.33691C167.505 7.33691 168.416 7.49793 169.112 7.81934C169.809 8.14072 170.452 8.72955 170.934 9.42578C171.416 10.0685 171.629 10.8188 171.79 11.6758C171.844 12.1043 171.844 12.8543 171.844 13.8184H163.916C163.916 14.836 164.345 15.6933 165.041 16.0684C165.47 16.3898 165.952 16.4434 166.595 16.4434C167.237 16.4434 167.826 16.3896 168.201 16.0684C168.362 16.0148 168.523 15.8541 168.576 15.6934L171.737 15.6396C171.63 16.2289 171.308 16.8188 170.772 17.3545C169.862 18.4255 168.469 18.9609 166.702 18.9609C165.256 18.9609 163.97 18.4254 162.845 17.5684C161.666 16.7113 161.131 15.2114 161.131 13.2295C161.131 11.3547 161.72 9.9084 162.685 8.89062C163.649 7.81934 164.934 7.33691 166.541 7.33691ZM209.555 5.99805C209.555 3.7123 212.403 4.01091 212.446 4.01562L212.286 14.4082C212.287 14.4524 212.367 18.9072 207.09 18.9072C205.59 18.9072 203.877 18.4786 203.02 17.4609C202.109 16.5503 201.733 15.1578 201.733 13.5508C201.733 11.6224 202.162 10.0685 203.02 9.05078C203.93 7.97972 205.055 7.44434 206.501 7.44434C207.144 7.44434 207.786 7.49794 208.269 7.81934C208.858 8.19428 209.233 8.56871 209.555 9.05078V5.99805ZM218.875 7.2832C220.749 7.28329 222.196 7.9261 223.053 9.05078C224.017 10.2292 224.499 11.6223 224.445 13.1221C224.445 14.6755 223.91 16.0685 223.053 17.1934C222.196 18.3718 220.696 18.9072 218.875 18.9072C217 18.9072 215.553 18.3183 214.696 17.1934C213.786 16.122 213.304 14.729 213.304 13.1221C213.304 11.5687 213.839 10.1756 214.696 9.05078C215.553 7.81887 217.054 7.2832 218.875 7.2832ZM196.431 7.39062C197.663 7.39063 198.68 7.60484 199.645 8.08691C200.609 8.56902 201.037 9.53344 200.983 10.7119V14.7832C200.983 15.4803 201.036 19.0149 194.771 18.8008C193.753 18.7472 192.948 18.479 192.306 17.9434C191.663 17.3542 191.342 16.5507 191.342 15.5332C191.342 14.2476 191.878 13.1763 192.896 12.6406C193.485 12.3192 194.288 12.1041 195.413 11.9434L196.377 11.8906C196.859 11.8371 197.288 11.7293 197.502 11.6758C197.93 11.5151 198.145 11.247 198.145 10.8721C198.144 10.3904 197.984 10.0689 197.663 9.9082C197.288 9.7475 196.912 9.69434 196.27 9.69434C195.627 9.6944 195.145 9.85444 194.823 10.1758C194.663 10.4436 194.502 10.7657 194.448 11.1406H191.717C191.824 10.23 192.038 9.47972 192.521 8.83691C193.27 7.87279 194.61 7.39062 196.431 7.39062ZM179.075 7.44434C179.182 7.44434 179.183 7.44462 179.236 7.55176H179.45V10.4443C179.29 10.3908 179.129 10.3906 178.969 10.3906H178.646C177.468 10.3907 176.719 10.8193 176.344 11.5156C176.076 11.8906 176.022 12.5865 176.022 13.4434V18.7471H173.13V13.0684C173.126 13.0197 172.729 7.44444 179.075 7.44434ZM155.292 7.33691C158.185 7.33691 159.846 9.31916 159.846 12.1582L159.898 18.6934H157.221V12.1045C157.221 11.4617 157.06 10.1221 155.292 10.1221C154.167 10.1222 153.311 10.9261 153.311 12.1045V18.6934H150.632V12.1045C150.632 11.4617 150.471 10.1223 148.704 10.1221C147.579 10.1221 146.775 10.926 146.775 12.1045V18.6934H144.097V12.1582C144.097 9.42629 145.865 7.33691 148.65 7.33691C150.043 7.33699 151.168 7.87293 151.972 8.89062C152.775 7.92658 153.899 7.33698 155.292 7.33691ZM198.252 13.3906C198.091 13.4442 197.876 13.5509 197.716 13.6045C197.448 13.6046 197.234 13.7111 196.913 13.7646L196.27 13.9258C195.681 13.9794 195.199 14.1401 194.984 14.3008C194.556 14.5686 194.342 14.9975 194.342 15.5332C194.342 16.0151 194.449 16.283 194.717 16.5508C194.985 16.8184 195.306 16.8721 195.681 16.8721C196.27 16.8721 196.859 16.6573 197.395 16.3359C197.877 15.961 198.198 15.3186 198.198 14.3545L198.252 13.3906ZM207.358 9.9082C206.502 9.9082 205.912 10.2296 205.537 10.8721C205.162 11.4613 205.001 12.2116 205.001 13.1758C205.001 14.2471 205.162 15.0506 205.537 15.6934C205.859 16.229 206.501 16.5508 207.305 16.5508C208.108 16.5507 208.751 16.229 209.126 15.6934C209.554 15.1578 209.662 14.3545 209.822 13.3906C209.822 11.9982 209.447 10.9264 208.805 10.3906C208.376 10.0693 207.894 9.90828 207.358 9.9082ZM218.875 9.85449C218.072 9.85449 217.428 10.1762 216.946 10.7119C216.518 11.2476 216.304 12.0509 216.304 13.1758C216.304 14.2471 216.464 15.1577 216.946 15.6934C217.428 16.229 218.072 16.5508 218.875 16.5508C219.678 16.5507 220.321 16.2289 220.803 15.6934C221.285 15.0506 221.445 14.1936 221.445 13.1758C221.445 12.158 221.285 11.2476 220.803 10.7119C220.321 10.1764 219.678 9.85459 218.875 9.85449ZM166.434 9.74805C165.684 9.74812 165.095 10.0157 164.72 10.3906C164.291 10.8191 164.077 11.3544 163.916 11.9971H168.845C168.845 11.2474 168.63 10.6581 168.148 10.2832C167.666 9.90824 167.076 9.74805 166.434 9.74805Z" fill="#838F8C"/>
<path d="M146.936 37.4082H144.097V24.2314C144.097 23.803 145.007 22.4105 146.186 22.4102H146.936V37.4082ZM158.506 22.4102V27.499C159.256 26.3206 160.327 25.7305 161.72 25.7305C164.719 25.8376 166.22 27.7664 166.22 31.6768C166.22 35.4264 164.505 37.3546 160.97 37.4082C157.435 37.4081 155.667 35.694 155.667 32.3193V23.8027C156.042 23.1599 156.792 22.4102 158.185 22.4102H158.506ZM152.828 37.3545H149.989V26.2666H152.828V37.3545ZM174.415 28.7842H173.076C171.469 28.7842 170.772 29.8023 170.772 31.4629V37.3545H167.88V31.5156C167.987 27.8735 169.755 25.838 173.558 25.8379H174.415V28.7842ZM180.735 25.7842C181.646 25.7842 182.504 25.9453 183.2 26.3203C183.896 26.6952 184.486 27.1775 184.914 27.7666C185.342 28.3558 185.664 29.0521 185.878 29.8555C186.092 30.6053 186.146 31.4624 186.093 32.3193H178.111C178.218 33.3368 178.486 34.0333 178.914 34.4619C179.396 34.8904 180.039 35.1055 180.896 35.1055C181.486 35.1055 182.022 34.9444 182.45 34.623C182.878 34.3019 183.146 33.9804 183.253 33.6592H185.932C185.503 34.9981 184.86 35.9089 183.949 36.498C183.039 37.0871 182.021 37.3545 180.735 37.3545C179.879 37.3544 179.075 37.1945 178.379 36.9268C177.683 36.6589 177.093 36.2301 176.611 35.748C176.129 35.2124 175.754 34.6231 175.486 33.9268C175.219 33.2304 175.111 32.4264 175.111 31.5693C175.111 30.766 175.272 29.9628 175.54 29.2666C175.808 28.5702 176.183 27.9274 176.665 27.4453C177.147 26.9096 177.736 26.5343 178.433 26.2129C179.129 25.8916 179.879 25.7842 180.735 25.7842ZM160.916 28.248C159.363 28.2483 158.613 29.3199 158.506 31.5156C158.452 33.7654 159.256 34.9443 160.863 34.9443C162.47 34.9442 163.327 33.8188 163.327 31.5156C163.22 29.3197 162.469 28.248 160.916 28.248ZM180.683 28.0879C180.201 28.0879 179.772 28.1948 179.45 28.3555C179.129 28.5162 178.861 28.731 178.7 28.9453C178.486 29.213 178.379 29.4276 178.271 29.6953C178.165 29.9628 178.165 30.2303 178.111 30.4443H183.039C182.985 29.641 182.718 29.0517 182.343 28.6768C181.968 28.3019 181.432 28.088 180.683 28.0879ZM152.828 24.9805H149.989V22.4102H152.828V24.9805Z" fill="#838F8C"/>
<path d="M108.7 4.01562C124.281 4.01562 136.9 12.3104 136.9 22.4414V23.5078C136.9 34.2904 125.94 42.999 108.7 42.999C91.5195 42.999 80.5001 34.2904 80.5 23.5078V22.4414C80.5 12.3104 93.119 4.01568 108.7 4.01562Z" fill="white" fill-opacity="0.54902"/>
<path d="M135.895 22.4383C135.895 31.9816 123.75 39.7467 108.82 39.7467C93.8904 39.7467 81.7451 31.9816 81.7451 22.4383C81.7451 12.8949 93.8904 5.12988 108.82 5.12988C123.75 5.12988 135.895 12.8949 135.895 22.4383Z" fill="#838F8C"/>
<path d="M99.814 16.9911C99.814 16.9911 99.5177 17.2872 99.6955 17.5242C100.11 18.0574 101.414 18.3537 102.776 18.0574C103.546 17.8797 104.613 17.0503 105.561 16.2801C106.627 15.4506 107.693 14.5619 108.76 14.2657C109.886 13.9102 110.596 14.088 111.07 14.2065C111.604 14.3842 112.196 14.7397 113.203 15.4506C115.04 16.8133 122.505 23.3303 123.808 24.456C124.815 23.982 129.436 22.0269 135.716 20.605C135.183 17.2873 133.169 14.2065 130.088 11.7182C125.822 13.4955 120.549 14.4435 115.395 11.9552C115.395 11.9552 112.611 10.6517 109.826 10.7109C105.738 10.8294 104.02 12.5476 102.125 14.4435L99.814 16.9911Z" fill="#838F8C"/>
<path d="M123.512 25.1668C123.452 25.1076 114.744 17.5241 112.789 16.043C111.663 15.2136 111.011 14.9766 110.359 14.8581C110.004 14.7988 109.53 14.8581 109.175 14.9766C108.286 15.2136 107.042 16.043 105.975 16.8724C104.85 17.7611 103.843 18.5906 102.895 18.7684C101.651 19.0646 100.169 18.7091 99.5178 18.2351C99.2216 18.0574 99.0438 17.8204 98.9253 17.5834C98.6884 16.991 99.1623 16.517 99.2216 16.4578L101.591 13.8509L102.421 13.0215C101.651 13.14 100.94 13.3177 100.229 13.4955C99.34 13.7325 98.5106 13.9694 97.6812 13.9694C97.3258 13.9694 95.4299 13.6732 95.0745 13.5547C92.8824 12.9622 90.9866 12.3698 88.1428 11.0664C84.7659 13.614 82.4554 16.754 81.8037 20.2495C82.2777 20.368 83.1071 20.6049 83.4033 20.6642C91.105 22.3823 93.4748 24.1597 93.9488 24.5152C94.4228 23.9819 95.0744 23.6857 95.8446 23.6857C96.674 23.6857 97.4442 24.1005 97.9181 24.7522C98.3329 24.3967 98.9846 24.1005 99.7548 24.1005C100.11 24.1005 100.466 24.1597 100.88 24.2782C101.769 24.5744 102.184 25.1669 102.421 25.7001C102.717 25.5816 103.072 25.4631 103.487 25.4631C103.902 25.4631 104.317 25.5816 104.791 25.7593C106.212 26.3518 106.449 27.7737 106.331 28.8401H106.627C108.345 28.8401 109.708 30.2028 109.708 31.9209C109.708 32.4541 109.589 32.9281 109.352 33.3428C109.826 33.5798 110.952 34.1722 112.018 34.0537C112.848 33.9352 113.144 33.6982 113.262 33.5205C113.322 33.402 113.44 33.2835 113.322 33.165L111.13 30.736C111.13 30.736 110.774 30.3805 110.893 30.262C111.011 30.1435 111.248 30.3212 111.426 30.4397C112.552 31.3877 113.855 32.7503 113.855 32.7503C113.855 32.7503 113.973 32.9281 114.447 33.0466C114.862 33.1058 115.632 33.0465 116.165 32.6318C116.284 32.5133 116.462 32.3948 116.521 32.2763C117.054 31.5654 116.462 30.8544 116.462 30.8544L113.914 28.0107C113.914 28.0107 113.559 27.6552 113.677 27.5367C113.796 27.4182 114.033 27.596 114.21 27.7144C115.04 28.3661 116.165 29.5511 117.232 30.6175C117.469 30.7952 118.417 31.3876 119.661 30.5582C120.431 30.025 120.609 29.4326 120.55 28.9586C120.49 28.3661 120.016 27.8921 120.016 27.8921L116.58 24.3967C116.58 24.3967 116.225 24.1004 116.343 23.9227C116.462 23.8042 116.699 23.982 116.876 24.1005C118.002 25.0484 120.964 27.7737 120.964 27.7737C121.023 27.7737 122.031 28.5439 123.334 27.7144C123.808 27.4182 124.104 27.0035 124.104 26.4703C124.163 25.7001 123.512 25.1668 123.512 25.1668Z" fill="#838F8C"/>
<path d="M106.746 29.6098C106.212 29.6098 105.62 29.906 105.561 29.906C105.502 29.906 105.561 29.669 105.62 29.5505C105.679 29.432 106.39 27.2992 104.672 26.529C103.369 25.9366 102.539 26.5882 102.302 26.8845C102.243 26.9437 102.184 26.9437 102.184 26.8845C102.184 26.529 102.006 25.4626 100.821 25.1071C99.1624 24.5739 98.1553 25.7588 97.859 26.1736C97.7405 25.2256 96.9704 24.5146 95.9632 24.5146C94.8968 24.5146 94.0674 25.3441 94.0674 26.4105C94.0674 27.4769 94.8968 28.3064 95.9632 28.3064C96.4964 28.3064 96.9111 28.1286 97.2666 27.7732V27.8324C97.2073 28.3064 97.0296 30.0245 98.8069 30.6762C99.5179 30.9724 100.11 30.7355 100.644 30.38C100.821 30.2615 100.821 30.3207 100.821 30.4392C100.762 30.8539 100.821 31.8018 102.184 32.3351C103.191 32.7498 103.783 32.3351 104.139 31.9796C104.317 31.8019 104.376 31.8611 104.376 32.0981C104.435 33.3423 105.502 34.3494 106.746 34.3494C108.049 34.3494 109.115 33.283 109.115 31.9796C109.115 30.6762 108.049 29.6098 106.746 29.6098Z" fill="#838F8C"/>
<path d="M123.875 24.2761C121.207 21.9658 115.043 16.5753 113.324 15.3313C112.376 14.6205 111.724 14.2058 111.131 14.0874C110.894 14.0281 110.538 13.9096 110.064 13.9096C109.649 13.9096 109.175 13.9689 108.701 14.1466C107.634 14.502 106.567 15.3313 105.5 16.1606L105.441 16.2199C104.492 16.9899 103.485 17.76 102.714 17.9378C102.359 17.997 102.062 18.0562 101.706 18.0562C100.877 18.0562 100.106 17.8193 99.8098 17.4638C99.7505 17.4046 99.8098 17.2861 99.9283 17.1676L102.299 14.6205C104.137 12.7842 105.856 11.0663 109.886 10.9478H110.064C112.553 10.9478 115.043 12.0733 115.339 12.1917C117.71 13.3172 120.081 13.9096 122.511 13.9096C125.06 13.9096 127.668 13.258 130.395 12.0141C130.098 11.7771 129.743 11.4809 129.446 11.244C127.016 12.3102 124.764 12.7841 122.511 12.7841C120.259 12.7841 118.007 12.251 115.813 11.1847C115.695 11.1255 112.968 9.82227 110.064 9.82227H109.827C106.448 9.8815 104.552 11.0663 103.307 12.1325C102.062 12.1325 100.995 12.4879 100.047 12.7249C99.2171 12.9618 98.4465 13.1396 97.7352 13.1396H96.8461C96.0163 13.1396 91.8672 12.1325 88.6072 10.8293C88.2516 11.0663 87.9552 11.3032 87.5996 11.5401C91.0374 12.9618 95.2458 14.0281 96.5498 14.1466C96.9054 14.1466 97.3203 14.2058 97.7352 14.2058C98.6243 14.2058 99.4542 13.9689 100.343 13.732C100.877 13.6135 101.41 13.4357 101.944 13.3173L101.469 13.7912L99.0985 16.3976C98.9206 16.5753 98.5057 17.1084 98.7428 17.7008C98.8614 17.9377 99.0985 18.1747 99.3948 18.4116C99.9876 18.767 100.995 19.0633 101.944 19.0633C102.299 19.0633 102.655 19.004 102.951 18.9447C103.959 18.7078 105.026 17.8785 106.093 16.99C106.982 16.2791 108.226 15.3905 109.175 15.0944C109.471 15.0351 109.768 14.9759 110.064 14.9759H110.301C110.953 15.0351 111.546 15.2721 112.672 16.1014C114.628 17.5823 123.341 25.1646 123.4 25.2238C123.4 25.2238 123.934 25.6978 123.934 26.5271C123.934 26.9417 123.637 27.3564 123.223 27.6526C122.867 27.8896 122.452 28.008 122.096 28.008C121.504 28.008 121.089 27.7118 121.089 27.7118C121.089 27.7118 118.066 24.9869 116.999 24.0391C116.821 23.8614 116.643 23.7429 116.465 23.7429C116.347 23.7429 116.288 23.8022 116.228 23.8614C116.051 24.0984 116.228 24.3945 116.465 24.5722L119.963 28.0672C119.963 28.0672 120.377 28.4819 120.437 29.015C120.437 29.6074 120.2 30.0813 119.607 30.4367C119.192 30.7329 118.777 30.8513 118.362 30.8513C117.829 30.8513 117.473 30.6144 117.355 30.5552L116.821 30.0813C115.932 29.1927 114.984 28.245 114.272 27.7118C114.095 27.5934 113.917 27.4156 113.739 27.4156C113.68 27.4156 113.561 27.4156 113.502 27.5341C113.443 27.5933 113.383 27.7711 113.561 28.0672C113.62 28.1857 113.739 28.245 113.739 28.245L116.288 31.0883C116.288 31.0883 116.821 31.7399 116.347 32.273L116.228 32.3916L115.991 32.6284C115.576 32.9839 114.984 33.0431 114.747 33.0431H114.391C114.154 32.9839 113.976 32.9247 113.857 32.8062C113.739 32.6285 112.435 31.3845 111.368 30.4959C111.249 30.3775 111.072 30.259 110.894 30.259C110.835 30.259 110.716 30.3182 110.657 30.3775C110.479 30.6144 110.775 30.9698 110.894 31.0883L113.087 33.4578C113.087 33.4578 113.087 33.517 113.028 33.6355C112.968 33.754 112.672 33.9909 111.901 34.1094H111.605C110.775 34.1094 109.945 33.6947 109.471 33.4578C109.649 33.0431 109.768 32.5693 109.768 32.0954C109.768 30.3183 108.345 28.8966 106.567 28.8966H106.448C106.508 28.0672 106.389 26.5271 104.789 25.8755C104.315 25.6978 103.9 25.5793 103.425 25.5793C103.07 25.5793 102.773 25.6385 102.418 25.757C102.062 25.1054 101.529 24.6315 100.817 24.3946C100.402 24.2761 100.047 24.2168 99.6319 24.2168C98.9799 24.2168 98.3872 24.3946 97.8537 24.8092C97.5963 24.4923 97.2708 24.2373 96.9015 24.063C96.5322 23.8887 96.1284 23.7996 95.7199 23.8022C95.0087 23.8022 94.2974 24.0984 93.8232 24.5722C93.1712 24.0391 90.5039 22.3805 83.3319 20.7219C82.9763 20.6626 82.2057 20.4257 81.7316 20.248C81.6723 20.6034 81.613 21.0181 81.5537 21.4327C81.5537 21.4327 82.8578 21.7289 83.1541 21.7881C90.4447 23.3875 92.8749 25.1054 93.2898 25.4016C93.1712 25.757 93.1119 26.1124 93.1119 26.4679C93.1119 28.008 94.3566 29.1927 95.8385 29.1927C96.0163 29.1927 96.1941 29.1928 96.3719 29.1335C96.609 30.259 97.3203 31.0883 98.4465 31.503C98.8021 31.6215 99.0985 31.6807 99.3948 31.6807C99.5726 31.6807 99.8098 31.6807 100.047 31.6214C100.225 32.1546 100.699 32.8062 101.766 33.2208C102.121 33.3985 102.477 33.4578 102.833 33.4578C103.129 33.4578 103.425 33.3986 103.663 33.2801C104.137 34.4648 105.322 35.2941 106.626 35.2941C107.515 35.2941 108.345 34.9387 108.938 34.2871C109.471 34.5833 110.538 35.1164 111.664 35.1164H112.079C113.205 34.998 113.68 34.5241 113.917 34.2279C113.976 34.1686 113.976 34.1094 114.035 34.0501C114.272 34.1094 114.569 34.1687 114.924 34.1687C115.517 34.1687 116.11 33.9909 116.703 33.517C117.295 33.1023 117.71 32.51 117.71 31.9769C117.888 32.0361 118.125 32.0361 118.303 32.0361C118.896 32.0361 119.548 31.8584 120.14 31.4437C121.267 30.7329 121.444 29.7259 121.444 29.1335C121.622 29.1928 121.859 29.1927 122.037 29.1927C122.63 29.1927 123.223 29.015 123.756 28.6596C124.467 28.1857 124.882 27.5341 124.941 26.7641C125.001 26.2309 124.823 25.6977 124.586 25.2238C126.483 24.3945 130.75 22.8544 135.848 21.6696C135.848 21.255 135.788 20.8996 135.67 20.4849C129.565 21.7881 125.001 23.7429 123.875 24.2761ZM106.745 34.1687C105.559 34.1687 104.611 33.2208 104.552 32.0361C104.552 31.9176 104.552 31.6807 104.315 31.6807C104.196 31.6807 104.137 31.7399 104.018 31.7992C103.781 32.0361 103.425 32.273 102.951 32.273C102.714 32.273 102.477 32.2138 102.24 32.0954C100.995 31.5622 100.936 30.7329 100.995 30.3775C100.995 30.259 100.995 30.1998 100.936 30.1405L100.877 30.0813H100.817C100.758 30.0813 100.699 30.0813 100.58 30.1997C100.225 30.4367 99.8691 30.5552 99.5134 30.5552C99.3356 30.5552 99.0985 30.4959 98.9207 30.4367C97.261 29.7851 97.3796 28.2449 97.4981 27.7711C97.4981 27.6526 97.4981 27.5933 97.4389 27.5341L97.3203 27.4156L97.2018 27.5341C96.8461 27.8303 96.4312 28.008 96.0163 28.008C95.0679 28.008 94.2974 27.2379 94.2974 26.2901C94.2974 25.3423 95.0679 24.5722 96.0163 24.5722C96.8461 24.5722 97.6167 25.2239 97.7352 26.0532L97.7945 26.5271L98.0316 26.1124C98.0316 26.0532 98.7429 24.9869 100.047 25.0462C100.284 25.0462 100.521 25.1054 100.817 25.1646C101.825 25.4608 102.003 26.4086 102.003 26.7641C102.003 27.001 102.181 27.0009 102.181 27.0009C102.24 27.0009 102.358 26.9417 102.358 26.8825C102.536 26.7048 102.951 26.3494 103.603 26.3494C103.9 26.3494 104.196 26.4086 104.552 26.5863C106.152 27.2972 105.441 29.3112 105.441 29.3704C105.322 29.7258 105.263 29.8443 105.441 29.9628H105.559C105.618 29.9628 105.737 29.9628 105.856 29.9036C106.093 29.8443 106.389 29.7259 106.685 29.7259C107.871 29.7259 108.878 30.7329 108.878 31.9176C108.938 33.2208 107.93 34.1687 106.745 34.1687Z" fill="white" fill-opacity="0.54902"/>
</svg>
