<svg width="305" height="46" viewBox="0 0 305 46" fill="none" xmlns="http://www.w3.org/2000/svg">
<path d="M139.45 16.9648H133.723C133.331 16.9648 132.998 17.24 132.936 17.6144L130.62 31.8154C130.579 32.0673 130.758 32.3032 131.018 32.3428C131.042 32.3464 131.067 32.3484 131.093 32.3484H133.827C134.219 32.3484 134.552 32.0725 134.613 31.6981L135.238 27.8677C135.299 27.4937 135.632 27.2177 136.024 27.2173H137.837C141.61 27.2173 143.787 25.4521 144.356 21.9537C144.612 20.4232 144.367 19.2206 143.626 18.3785C142.811 17.4538 141.367 16.9648 139.45 16.9648ZM140.111 22.1516C139.798 24.1386 138.227 24.1386 136.709 24.1386H135.845L136.451 20.4276C136.488 20.2033 136.687 20.038 136.922 20.038H137.318C138.352 20.038 139.328 20.038 139.832 20.6082C140.133 20.9482 140.225 21.4536 140.111 22.1516ZM156.57 22.0875H153.828C153.593 22.0875 153.393 22.2529 153.357 22.4771L153.235 23.2188L153.043 22.9501C152.45 22.1167 151.126 21.8384 149.804 21.8384C146.773 21.8384 144.184 24.0581 143.68 27.1717C143.418 28.7247 143.791 30.21 144.702 31.2455C145.538 32.1978 146.734 32.5947 148.156 32.5947C150.599 32.5947 151.953 31.0766 151.953 31.0766L151.83 31.8134C151.789 32.0653 151.966 32.302 152.226 32.342C152.251 32.346 152.276 32.3476 152.301 32.3476H154.771C155.164 32.3476 155.497 32.0717 155.558 31.6973L157.04 22.6205C157.082 22.3698 156.905 22.1335 156.646 22.0935C156.621 22.0895 156.596 22.0875 156.57 22.0875ZM152.747 27.249C152.483 28.7639 151.239 29.7811 149.653 29.7811C148.856 29.7811 148.22 29.534 147.811 29.0659C147.406 28.6009 147.252 27.9394 147.381 27.2025C147.628 25.7004 148.892 24.65 150.454 24.65C151.233 24.65 151.866 24.9003 152.283 25.3724C152.701 25.8494 152.867 26.5153 152.747 27.249ZM171.178 22.0875H168.421C168.158 22.0879 167.911 22.2144 167.762 22.4251L163.961 27.8393L162.35 22.6365C162.248 22.3105 161.938 22.0875 161.586 22.0875H158.878C158.614 22.0867 158.4 22.2929 158.399 22.548C158.399 22.5993 158.408 22.6497 158.425 22.6982L161.46 31.3124L158.606 35.2081C158.454 35.4159 158.504 35.7042 158.719 35.8516C158.8 35.9073 158.897 35.9369 158.996 35.9369H161.749C162.009 35.9369 162.254 35.814 162.402 35.6065L171.569 22.8119C171.72 22.6025 171.666 22.315 171.449 22.1696C171.369 22.1159 171.275 22.0875 171.178 22.0875Z" fill="#838F8C"/>
<path d="M180.303 16.9656H174.575C174.183 16.9656 173.85 17.2412 173.789 17.6152L171.473 31.8162C171.432 32.0677 171.609 32.3036 171.869 32.3432C171.893 32.3468 171.918 32.3488 171.943 32.3488H174.883C175.157 32.3488 175.39 32.1554 175.432 31.8939L176.09 27.8685C176.15 27.4945 176.484 27.2185 176.875 27.2181H178.688C182.461 27.2181 184.638 25.4529 185.207 21.9545C185.464 20.424 185.217 19.2214 184.476 18.3793C183.663 17.4546 182.22 16.9652 180.303 16.9652L180.303 16.9656ZM180.963 22.1524C180.651 24.1394 179.081 24.1394 177.562 24.1394H176.698L177.305 20.4284C177.341 20.2041 177.541 20.0388 177.776 20.0388H178.172C179.205 20.0388 180.181 20.0388 180.686 20.609C180.986 20.949 181.077 21.4544 180.963 22.1524H180.963ZM197.422 22.0883H194.681C194.447 22.0875 194.247 22.2533 194.211 22.4779L194.09 23.2196L193.897 22.9509C193.303 22.1175 191.98 21.8392 190.658 21.8392C187.628 21.8392 185.04 24.0589 184.535 27.1725C184.274 28.7255 184.645 30.2108 185.556 31.2463C186.394 32.1986 187.588 32.5955 189.011 32.5955C191.453 32.5955 192.807 31.0774 192.807 31.0774L192.685 31.8142C192.643 32.0661 192.821 32.3028 193.081 32.3428C193.106 32.3468 193.132 32.3488 193.157 32.3484H195.626C196.018 32.3484 196.351 32.0725 196.412 31.6981L197.895 22.6213C197.935 22.369 197.756 22.1327 197.496 22.0939C197.471 22.0903 197.447 22.0883 197.422 22.0887V22.0883ZM193.599 27.2498C193.336 28.7647 192.091 29.7819 190.505 29.7819C189.71 29.7819 189.072 29.5348 188.663 29.0667C188.257 28.6017 188.105 27.9402 188.233 27.2033C188.482 25.7012 189.744 24.6508 191.306 24.6508C192.085 24.6508 192.718 24.9011 193.135 25.3732C193.554 25.8502 193.72 26.5157 193.599 27.2494L193.599 27.2498ZM200.656 17.3553L198.305 31.8162C198.264 32.0677 198.441 32.3036 198.701 32.3432C198.726 32.3468 198.75 32.3488 198.775 32.3488H201.138C201.531 32.3488 201.864 32.0733 201.925 31.6985L204.243 17.4983C204.284 17.2464 204.106 17.0101 203.846 16.9705C203.821 16.9668 203.797 16.9648 203.772 16.9648H201.126C200.891 16.9656 200.692 17.131 200.655 17.3553H200.656Z" fill="#838F8C"/>
<path d="M106.835 35.1079L107.273 32.4176L106.297 32.3956H101.639L104.876 12.5462C104.896 12.4208 105.008 12.3283 105.139 12.3291H112.995C115.603 12.3291 117.402 12.8537 118.342 13.8897C118.783 14.3754 119.063 14.8832 119.199 15.4419C119.341 16.0281 119.344 16.7285 119.205 17.5831L119.195 17.6456V18.193L119.635 18.4345C119.972 18.5991 120.274 18.8221 120.527 19.092C120.904 19.5073 121.148 20.0355 121.251 20.6614C121.357 21.3054 121.322 22.0714 121.148 22.9384C120.947 23.936 120.622 24.8049 120.183 25.5158C119.796 26.1529 119.275 26.7043 118.655 27.1352C118.072 27.5353 117.379 27.8388 116.597 28.0334C115.838 28.2245 114.973 28.321 114.024 28.321H113.413C112.975 28.321 112.551 28.4731 112.217 28.7462C111.884 29.0222 111.664 29.403 111.594 29.8215L111.549 30.0638L110.775 34.8052L110.74 34.9794C110.731 35.0346 110.714 35.0619 110.691 35.0807C110.668 35.0987 110.64 35.1087 110.611 35.1091H106.836L106.835 35.1079Z" fill="#838F8C"/>
<path d="M120.052 17.709C120.029 17.8539 120.002 18.0021 119.972 18.1543C118.936 23.2974 115.392 25.0738 110.865 25.0738H108.56C108.007 25.0738 107.54 25.4626 107.454 25.9904L106.274 33.2267L105.94 35.2778C105.889 35.589 106.109 35.8809 106.43 35.9302C106.461 35.935 106.491 35.937 106.522 35.937H110.61C111.094 35.937 111.505 35.597 111.582 35.1353L111.622 34.9347L112.391 30.2121L112.44 29.953C112.516 29.4896 112.928 29.1496 113.412 29.1496H114.023C117.984 29.1496 121.084 27.5951 121.99 23.0959C122.369 21.2166 122.173 19.6472 121.171 18.5435C120.854 18.2019 120.475 17.9196 120.052 17.7094V17.709Z" fill="#838F8C"/>
<path d="M118.968 17.2906C118.637 17.198 118.301 17.126 117.961 17.0743C117.288 16.9746 116.609 16.9265 115.929 16.9309H109.772C109.287 16.9309 108.875 17.2717 108.801 17.7343L107.491 25.7558L107.453 25.9897C107.538 25.4619 108.007 25.0726 108.559 25.073H110.864C115.391 25.073 118.935 23.2954 119.971 18.1535C120.002 18.0014 120.028 17.8532 120.051 17.7082C119.778 17.5697 119.493 17.4535 119.199 17.361C119.122 17.3362 119.046 17.313 118.968 17.2906Z" fill="#5A6562"/>
<path d="M108.802 17.7343C108.875 17.2714 109.288 16.9302 109.772 16.9318H115.93C116.659 16.9318 117.34 16.9779 117.961 17.0752C118.382 17.1392 118.797 17.2345 119.202 17.3611C119.508 17.4592 119.792 17.5749 120.054 17.7083C120.362 15.8077 120.051 14.5138 118.989 13.3421C117.816 12.0522 115.701 11.5 112.996 11.5H105.14C104.587 11.5 104.116 11.8888 104.031 12.4174L100.758 32.4715C100.7 32.8275 100.951 33.1619 101.32 33.2184C101.354 33.2236 101.389 33.2264 101.424 33.2264H106.274L107.492 25.7563L108.802 17.7343Z" fill="#5A6562"/>
</svg>
