<svg width="305" height="46" viewBox="0 0 305 46" fill="none" xmlns="http://www.w3.org/2000/svg">
<path d="M162.12 7.46875C170.675 7.46893 177.61 14.2847 177.61 22.6924C177.61 31.1002 170.675 37.9168 162.12 37.917C158.285 37.917 154.776 36.5466 152.071 34.2783C149.366 36.5464 145.858 37.917 142.023 37.917C133.468 37.9168 126.533 31.1002 126.533 22.6924C126.533 14.2847 133.468 7.46894 142.023 7.46875C145.858 7.46875 149.366 8.83857 152.071 11.1064C154.776 8.83828 158.286 7.46875 162.12 7.46875Z" fill="#5A6562"/>
<path d="M162.119 7.46875C170.674 7.46875 177.609 14.2846 177.609 22.6924C177.609 31.1003 170.674 37.917 162.119 37.917C158.285 37.917 154.776 36.5465 152.071 34.2783C155.402 31.486 157.514 27.3318 157.514 22.6924C157.514 18.0527 155.402 13.8978 152.071 11.1055C154.776 8.83773 158.285 7.46876 162.119 7.46875Z" fill="#838F8C"/>
<path d="M152.071 11.1064C155.402 13.8988 157.514 18.0529 157.514 22.6924C157.514 27.3319 155.402 31.486 152.071 34.2783C148.741 31.486 146.629 27.3318 146.629 22.6924C146.629 18.053 148.741 13.8988 152.071 11.1064Z" fill="#838F8C"/>
</svg>
