<svg width="305" height="46" viewBox="0 0 305 46" fill="none" xmlns="http://www.w3.org/2000/svg">
<path d="M120.902 25.2846C119.446 31.2338 113.506 34.861 107.633 33.3858C101.76 31.9096 98.1811 25.8904 99.6371 19.9411C101.093 13.9909 107.034 10.3637 112.907 11.8399C112.917 11.8428 112.926 11.8447 112.937 11.8475C118.793 13.3369 122.357 19.3467 120.902 25.2846Z" fill="#838F8C"/>
<path d="M112.755 20.9957C112.412 22.383 110.324 21.6723 109.647 21.5022L110.246 19.0743C110.913 19.2407 113.097 19.5601 112.745 20.9957H112.755ZM112.382 24.9187C112.012 26.4308 109.499 25.6124 108.684 25.4073L109.345 22.7261C110.16 22.934 112.768 23.3404 112.381 24.9187H112.382ZM115.12 21.0165C115.336 19.5384 114.227 18.7445 112.724 18.2172L113.216 16.2155L112.001 15.9102L111.522 17.8599C111.206 17.7805 110.882 17.704 110.56 17.6312L111.039 15.6607L109.838 15.3555L109.345 17.3571L108.579 17.1842L106.918 16.7646L106.6 18.065C106.6 18.065 107.49 18.2729 107.473 18.2871C107.813 18.3287 108.061 18.6349 108.035 18.9808L107.473 21.2594C107.515 21.2688 107.557 21.283 107.597 21.3009L107.47 21.266L106.685 24.4603C106.612 24.6938 106.365 24.8223 106.134 24.7486C106.134 24.7656 105.257 24.5303 105.257 24.5303L104.661 25.9176L106.225 26.3098L107.081 26.5357L106.585 28.5582L107.786 28.8634L108.278 26.8618C108.602 26.9515 108.921 27.0347 109.234 27.1113L108.748 29.1195L109.949 29.421L110.445 27.4023C112.499 27.7945 114.036 27.6377 114.687 25.7579C115.211 24.2458 114.659 23.3754 113.581 22.8064C114.368 22.6231 114.951 22.1128 115.118 21.0165H115.12Z" fill="white"/>
<path d="M127.834 30.2295C128.473 30.2314 129.103 30.066 129.662 29.7503C130.236 29.4394 130.743 29.0122 131.148 28.4943C131.569 27.9471 131.901 27.3347 132.13 26.6807C132.371 26.0041 132.494 25.2905 132.493 24.5723C132.531 23.8427 132.377 23.1159 132.048 22.4667C131.753 21.9639 131.205 21.7068 130.412 21.7068C130.066 21.7191 129.721 21.7663 129.385 21.8486C128.967 21.9431 128.58 22.1463 128.262 22.4383L126.447 30.1246L126.738 30.1804C126.825 30.2021 126.914 30.2163 127.001 30.2219C127.115 30.2361 127.229 30.2418 127.344 30.2389L127.834 30.2285V30.2295ZM131.439 18.2148C132.232 18.1959 133.018 18.3603 133.739 18.6939C134.365 18.9963 134.915 19.4386 135.348 19.9877C135.791 20.5557 136.117 21.2078 136.307 21.9053C136.514 22.6746 136.616 23.4694 136.612 24.267C136.611 26.7497 135.661 29.1342 133.962 30.9232C133.138 31.7794 132.158 32.4646 131.076 32.9419C129.942 33.4475 128.714 33.7055 127.474 33.6979H126.598C126.121 33.6819 125.645 33.6403 125.173 33.5732C124.597 33.4881 124.025 33.3728 123.462 33.2263C122.87 33.0846 122.297 32.8776 121.75 32.6092L126.56 12.1937L130.857 11.5L129.145 18.7459C129.501 18.5824 129.872 18.451 130.25 18.3537C130.641 18.2573 131.043 18.2091 131.445 18.2119L131.439 18.2157V18.2148Z" fill="#838F8C"/>
<path d="M143.047 16.7259C142.488 16.7316 141.941 16.5492 141.493 16.209C141.019 15.8281 140.761 15.2327 140.809 14.6203C140.807 14.2385 140.887 13.8605 141.045 13.5136C141.196 13.1753 141.408 12.87 141.672 12.612C141.935 12.3587 142.24 12.1546 142.572 12.0081C142.918 11.8578 143.291 11.7813 143.667 11.7822C144.223 11.7804 144.764 11.9637 145.208 12.302C145.682 12.6838 145.938 13.2783 145.892 13.8907C145.895 14.2735 145.816 14.6524 145.66 15.0002C145.509 15.3367 145.298 15.641 145.037 15.898C144.775 16.1523 144.47 16.3564 144.137 16.5019C143.791 16.6522 143.418 16.7278 143.042 16.724H143.048L143.047 16.7259ZM141.051 33.3016H136.943L140.414 18.5254H144.546L141.051 33.3016Z" fill="#838F8C"/>
<path d="M148.142 14.8467L152.438 14.1738L151.37 18.5268H155.971L155.142 21.9537H150.579L149.361 27.1081C149.255 27.5032 149.19 27.9077 149.166 28.3159C149.141 28.6458 149.189 28.9775 149.306 29.2865C149.42 29.5634 149.632 29.7874 149.902 29.914C150.289 30.087 150.711 30.1664 151.134 30.1428C151.568 30.1446 152 30.1012 152.425 30.0142C152.852 29.9292 153.274 29.8139 153.685 29.6674L153.993 32.8721C153.403 33.0867 152.801 33.2643 152.189 33.4033C151.433 33.5658 150.661 33.6414 149.889 33.6291C148.612 33.6291 147.626 33.4345 146.921 33.0536C146.261 32.7134 145.732 32.1595 145.422 31.4791C145.118 30.7571 144.985 29.9726 145.035 29.1901C145.08 28.2715 145.21 27.3586 145.422 26.4636L148.143 14.8344V14.8486L148.142 14.8467Z" fill="#838F8C"/>
<path d="M155.82 27.4029C155.812 26.1771 156.018 24.9589 156.429 23.8059C156.815 22.7162 157.409 21.7135 158.175 20.8544C158.948 20.0029 159.888 19.3244 160.934 18.8632C162.076 18.3642 163.309 18.1147 164.553 18.1317C165.303 18.1222 166.052 18.2026 166.785 18.3708C167.4 18.5182 167.999 18.7299 168.572 19.0021L167.145 22.2522C166.775 22.1 166.391 21.9687 165.995 21.8468C165.521 21.7135 165.031 21.6511 164.54 21.6634C163.298 21.6181 162.104 22.1492 161.297 23.1065C160.496 24.0611 160.094 25.3445 160.092 26.9568C160.055 27.7743 160.267 28.5833 160.701 29.2741C161.107 29.8638 161.856 30.1578 162.947 30.1578C163.47 30.1578 163.991 30.101 164.501 29.9876C164.956 29.8893 165.402 29.7485 165.833 29.568L166.138 32.9117C165.579 33.1262 165.007 33.3096 164.427 33.4589C163.69 33.6271 162.936 33.7065 162.181 33.6952C161.178 33.7245 160.181 33.5534 159.243 33.1924C158.498 32.8881 157.827 32.4231 157.278 31.8296C156.757 31.254 156.371 30.566 156.152 29.8175C155.92 29.0303 155.804 28.2118 155.81 27.3896L155.82 27.4038V27.4029Z" fill="#838F8C"/>
<path d="M176.089 21.6766C175.51 21.6681 174.944 21.8552 174.48 22.2077C174.01 22.5763 173.615 23.0346 173.32 23.5573C172.994 24.113 172.75 24.714 172.594 25.3406C172.444 25.9417 172.365 26.5579 172.362 27.1788C172.324 27.9358 172.476 28.689 172.804 29.3714C173.101 29.8949 173.636 30.1586 174.413 30.1586C174.993 30.169 175.56 29.9809 176.022 29.6247C176.493 29.2561 176.888 28.7977 177.186 28.276C177.507 27.7194 177.746 27.1193 177.895 26.4927C178.044 25.8907 178.123 25.2726 178.127 24.6507C178.165 23.8947 178.013 23.1395 177.685 22.4581C177.387 21.9384 176.849 21.6747 176.076 21.6747L176.09 21.6785L176.089 21.6766ZM174.035 33.6979C173.163 33.7187 172.295 33.5647 171.481 33.2471C170.797 32.9731 170.185 32.5412 169.694 31.9845C169.212 31.4241 168.849 30.7682 168.626 30.0594C168.384 29.2646 168.268 28.4357 168.284 27.6041C168.286 26.4586 168.467 25.3208 168.822 24.233C169.165 23.1377 169.701 22.1151 170.403 21.2116C171.108 20.309 171.985 19.5587 172.98 19.0058C174.052 18.4217 175.254 18.1269 176.472 18.1486C177.34 18.1325 178.202 18.2856 179.012 18.5994C179.698 18.8688 180.314 19.295 180.81 19.845C181.289 20.4073 181.651 21.0623 181.875 21.7701C182.118 22.5659 182.234 23.3957 182.217 24.2292C182.214 25.3737 182.037 26.5106 181.693 27.6003C181.355 28.6966 180.829 29.7239 180.139 30.6349C179.444 31.5413 178.571 32.2917 177.575 32.8379C176.486 33.4248 175.268 33.7216 174.035 33.6979Z" fill="#838F8C"/>
<path d="M188.704 16.726C188.145 16.7317 187.599 16.5502 187.154 16.209C186.678 15.8282 186.421 15.2328 186.469 14.6204C186.467 14.2386 186.547 13.8605 186.705 13.5137C186.851 13.1772 187.058 12.872 187.314 12.6121C187.579 12.3598 187.884 12.1556 188.218 12.0082C188.563 11.8579 188.934 11.7814 189.31 11.7823C189.87 11.7776 190.417 11.9609 190.864 12.3021C191.338 12.6839 191.594 13.2784 191.549 13.8908C191.549 14.2745 191.468 14.6525 191.309 15.0003C191.161 15.3367 190.95 15.642 190.69 15.8981C190.428 16.1523 190.123 16.3565 189.79 16.502C189.446 16.6513 189.077 16.7269 188.704 16.7241V16.726ZM186.711 33.3017H182.604L186.068 18.5254H190.203L186.71 33.3017H186.711Z" fill="#838F8C"/>
<path d="M193.162 19.1996C193.473 19.1098 193.819 18.9983 194.189 18.8773C194.558 18.7564 194.99 18.6449 195.466 18.5305C195.987 18.418 196.514 18.3339 197.044 18.2772C197.702 18.2063 198.364 18.1733 199.026 18.177C201.19 18.177 202.681 18.814 203.503 20.088C203.995 20.8516 204.244 21.7825 204.25 22.8816V22.961C204.247 23.6755 204.141 24.4609 203.935 25.3152L202.049 33.2926H197.927L199.758 25.4815C199.867 24.9967 199.957 24.5242 200.022 24.063C200.093 23.6632 200.093 23.2549 200.022 22.8561C199.954 22.5225 199.772 22.2248 199.509 22.0131C199.143 21.7702 198.709 21.6568 198.273 21.6908C197.725 21.6918 197.177 21.7485 196.64 21.8609L193.949 33.3068H189.803L193.162 19.2006V19.1996Z" fill="#838F8C"/>
</svg>
